<svg xmlns="http://www.w3.org/2000/svg" xmlns:xlink="http://www.w3.org/1999/xlink" id="Ebene_1" width="87.5" height="87.5" x="0" y="0" enable-background="new 0 0 87.5 87.5" version="1.1" viewBox="0 0 87.5 87.5" xml:space="preserve"><path fill="none" stroke="#1A171B" stroke-width="19" d="M75,67.38c0,4.208-3.412,7.62-7.62,7.62H19.12	c-4.208,0-7.62-3.412-7.62-7.62V19.12c0-4.208,3.412-7.62,7.62-7.62h48.26c4.208,0,7.62,3.412,7.62,7.62V67.38z"/><path fill="none" stroke="#1A171B" stroke-width="32" d="M47,43.25c0,1.933-1.566,3.5-3.5,3.5l0,0c-1.933,0-3.5-1.566-3.5-3.5l0,0	c0-1.934,1.567-3.5,3.5-3.5l0,0C45.434,39.75,47,41.317,47,43.25L47,43.25z"/></svg>