<svg xmlns="http://www.w3.org/2000/svg" xmlns:xlink="http://www.w3.org/1999/xlink" id="Ebene_1" width="100" height="100" x="0" y="0" enable-background="new 0 0 100 100" version="1.1" viewBox="0 0 100 100" xml:space="preserve"><path d="M79.498,89.538c0-0.013,0.002-0.025,0.002-0.038c0-5.523-4.477-10-10-10s-10,4.477-10,10h-0.001l0.002,10l9.979-0.001	c0.007,0,0.013,0.001,0.02,0.001s0.013-0.001,0.02-0.001l9.981-0.001L79.498,89.538z M39.5,89.5c0-5.523-4.477-10-10-10	s-10,4.477-10,10h0v10l9.981-0.001c0.007,0,0.013,0.001,0.02,0.001s0.013-0.001,0.02-0.001l9.982-0.001L39.5,89.51	C39.5,89.507,39.5,89.503,39.5,89.5z"/></svg>