<svg xmlns="http://www.w3.org/2000/svg" xmlns:xlink="http://www.w3.org/1999/xlink" id="Ebene_1" width="100" height="100" x="0" y="0" enable-background="new 0 0 100 100" version="1.1" viewBox="0 0 100 100" xml:space="preserve"><path d="M59.496,59.5l-10,9.999l10,9.999l9.999-10L59.496,59.5z M69.502,29.5l-10-10l-10,9.999l10,10L69.502,29.5z M79.502,19.499	l9.996-9.998l-9.998-10L69.502,9.5l-10,10l10,10L79.502,19.499z M69.492,49.501L79.49,59.5l10-10l-9.999-9.998L69.492,49.501z M99.498,39.5l-10-10l-10,10l10,10L99.498,39.5z M99.498,19.501l-9.999-9.999L79.5,19.501l9.999,9.999l0.001-0.001l10,10v-20	L99.498,19.501z M79.5,59.5l10,10l10,9.999V59.5l-10-10L79.5,59.5z M79.5,79.5l10,10l10-9.999l-10-10L79.5,79.5z M89.5,89.501	l-10-10l-10,9.999l10,10L89.5,89.501z M59.5,79.5l10,10l10-10l-10-10L59.5,79.5z"/></svg>