<svg xmlns="http://www.w3.org/2000/svg" xmlns:xlink="http://www.w3.org/1999/xlink" id="Ebene_1" width="100" height="100" x="0" y="0" enable-background="new 0 0 100 100" version="1.1" viewBox="0 0 100 100" xml:space="preserve"><path d="M79.498,59.494L69.5,49.495l-10,9.999l10,9.999L79.498,59.494z M99.498,79.5l-9.999-10l-10-10l-10,10l10,10l-10,10H69.5	l-10,10h20l-0.001-0.001L99.498,79.5z M49.499,89.5l10,10l10-10l-10-10L49.499,89.5z M44.501,84.496l4.999,4.998l10-9.998l-10-10	l-9.999,10h0l-9.999,10l10,9.999l9.999-9.999L44.501,84.496z M19.5,99.5h20l-10-10L19.5,99.5z M19.5,79.5l-10,10l9.999,10l10-10	L19.5,79.5z M9.5,69.5l-10,10l9.999,10l10-10L9.5,69.5z M39.5,59.499L29.5,49.5l-20,20l9.999,9.999L39.5,59.499z"/></svg>