<svg xmlns="http://www.w3.org/2000/svg" xmlns:xlink="http://www.w3.org/1999/xlink" id="Ebene_1" width="100" height="100" x="0" y="0" enable-background="new 0 0 100 100" version="1.1" viewBox="0 0 100 100" xml:space="preserve"><path d="M39.5,89.5c0-5.523-4.477-10-10-10s-10,4.477-10,10h0v10l9.981-0.001c0.007,0,0.013,0.001,0.02,0.001	s0.013-0.001,0.02-0.001l9.982-0.001L39.5,89.51C39.5,89.507,39.5,89.503,39.5,89.5z M29.498,19.5L29.498,19.5	c-5.522,0.002-9.998,4.479-9.998,10s4.476,9.999,9.998,10v0.001H99.5V19.5H29.498z M59.499,99.5h19.999	c0.021-11.042,8.96-19.98,20.002-20.002V59.499C77.403,59.505,59.505,77.403,59.499,99.5z"/></svg>