<svg xmlns="http://www.w3.org/2000/svg" xmlns:xlink="http://www.w3.org/1999/xlink" id="Ebene_1" width="100" height="100" x="0" y="0" enable-background="new 0 0 100 100" version="1.1" viewBox="0 0 100 100" xml:space="preserve"><path d="M49.497,49.5l-9.999,10l9.999,9.999l10-9.999L49.497,49.5z M29.5,39.5l-10,10l10,10l10-10L29.5,39.5z M-0.499,49.501	L9.5,59.5l10-10l-10-10L-0.499,49.501z M59.5,39.5l10,9.999l10-9.999l0.002-0.002l10,10l10-10L99.5,39.496V19.5l-10,10l-10-10	l-10,10l-10-10l-10,10v0l-10,10l10,10L59.5,39.5z M79.501,59.498L69.502,49.5l-10,10l0.003,0.003l-10,9.998l9.999,10l9.998-9.998	l9.998,9.997l20-20l-10-10L79.501,59.498z M99.5,79.5v-20l-10,10L99.5,79.5z"/></svg>