<svg xmlns="http://www.w3.org/2000/svg" xmlns:xlink="http://www.w3.org/1999/xlink" id="Ebene_1" width="100" height="100" x="0" y="0" version="1.1" viewBox="0 0 100 100" xml:space="preserve" style="enable-background:new 0 0 100 100"><style type="text/css">.st0{fill:#4169b8}</style><ellipse cx="70.6" cy="68" class="st0" rx="2.5" ry="2.5"/><g id="XMLID_2_"><g><path d="M78,48c-3.7,2.5-7.7,8-6.8,12.8c-1.3-2.4-2.2-10.3-8.4-11.5c0.9-3.2,4-2.8,6.2-2c-1-3.9-2.9-7.7,1.5-11.8 c3.8,3.7,3,7.4,0.8,11.3C73.5,47.9,75.7,44.5,78,48z" class="st0"/></g></g><path d="M93.3,48.2c-0.4,3.7-2.2,6.1-5.5,7c1.2,0.9,2.8,1.5,2.3,4.2c-3.6-2.1-8.1,0.1-9.7,2.8c0.9-2.2,3.6-6.9,2.8-11.1	c2.2-0.4,2.7,1,2.8,2.8C88.6,52.1,88.2,47.5,93.3,48.2z" class="st0"/><path d="M51.4,59.4c-1.1-2.1,0.7-3.5,2.3-4.2c-2.4-1.6-5.4-2.6-5.1-7c3.8,0,5.3,2.4,6,5.6c1.8-0.6,1.2-3.5,4.1-2.8	c-0.7,3.2-0.1,8.1,2.8,10.2C59.6,60.6,55.2,56.9,51.4,59.4z" class="st0"/><g id="XMLID_1_"><g><path d="M63.9,85.5c3.7-2.5,7.7-8.1,6.8-12.8c1.3,2.4,2.2,10.3,8.4,11.5c-0.9,3.2-4,2.8-6.2,2c1,3.9,2.9,7.7-1.5,11.8 c-3.8-3.7-3-7.4-0.8-11.3C68.3,85.6,66.2,89,63.9,85.5z" class="st0"/></g></g><path d="M48.6,85.3c0.4-3.7,2.2-6.1,5.5-7c-1.2-0.9-2.8-1.5-2.3-4.2c3.6,2.1,8.1-0.1,9.7-2.8c-0.9,2.2-3.6,6.9-2.8,11.1	c-2.2,0.4-2.7-1-2.8-2.8C53.3,81.4,53.6,86.1,48.6,85.3z" class="st0"/><path d="M90.5,74.2c1.1,2.1-0.7,3.5-2.3,4.2c2.4,1.6,5.4,2.6,5.1,7c-3.8,0-5.3-2.4-6-5.6c-1.8,0.6-1.2,3.5-4.1,2.8	c0.7-3.2,0.1-8.1-2.8-10.2C82.2,72.9,86.7,76.7,90.5,74.2z" class="st0"/></svg>